<?xml version="1.0" standalone="no"?>
<!DOCTYPE svg PUBLIC "-//W3C//DTD SVG 20010904//EN"
 "http://www.w3.org/TR/2001/REC-SVG-20010904/DTD/svg10.dtd">
<svg version="1.0" xmlns="http://www.w3.org/2000/svg"
 width="3065.000000pt" height="3065.000000pt" viewBox="0 0 3065.000000 3065.000000"
 preserveAspectRatio="xMidYMid meet">
<metadata>
Created by potrace 1.11, written by Peter Selinger 2001-2013
</metadata>
<g transform="translate(0.000000,3065.000000) scale(0.100000,-0.100000)"
fill="#000000" stroke="none">
<path d="M29060 24299 c-19 -7 -265 -69 -370 -94 -8 -2 -35 -8 -60 -14 -25 -7
-53 -14 -64 -16 -10 -2 -55 -13 -100 -24 -613 -152 -1103 -271 -1111 -272 -3
0 -28 -7 -57 -15 -29 -9 -63 -18 -77 -20 -15 -2 -42 -8 -61 -14 -19 -6 -46
-13 -60 -16 -14 -3 -133 -32 -265 -65 -132 -32 -250 -61 -262 -64 -39 -8 -54
-12 -183 -45 -69 -18 -133 -33 -143 -35 -10 -3 -27 -7 -37 -10 -10 -3 -27 -7
-37 -10 -31 -6 -315 -74 -378 -91 -33 -9 -76 -20 -95 -25 -37 -10 -524 -128
-550 -134 -8 -2 -53 -13 -100 -25 -47 -12 -92 -23 -100 -25 -8 -2 -116 -28
-240 -58 -600 -148 -846 -209 -860 -212 -77 -17 -276 -69 -282 -74 -4 -3 11
-76 33 -161 21 -85 41 -164 43 -175 2 -11 42 -175 89 -365 47 -190 113 -460
147 -600 35 -140 66 -259 71 -264 4 -5 64 5 138 24 72 18 133 32 136 32 2 -1
19 4 37 9 18 6 42 12 53 14 11 3 94 23 185 46 91 22 172 42 180 44 84 20 348
85 530 130 124 31 234 58 245 61 11 2 47 11 80 19 33 9 71 18 85 21 14 2 59
14 100 24 98 26 1115 276 1159 285 l34 7 -24 -33 c-23 -34 -97 -135 -239 -326
-72 -98 -98 -134 -282 -383 -142 -193 -264 -359 -360 -491 -121 -164 -267
-362 -345 -469 -35 -47 -71 -96 -80 -109 -98 -131 -285 -385 -373 -506 -159
-217 -388 -528 -397 -540 -5 -5 -104 -140 -221 -300 -117 -159 -227 -309 -245
-332 -17 -23 -63 -85 -102 -138 -38 -53 -125 -172 -193 -263 -67 -91 -129
-175 -137 -187 -32 -44 -205 -278 -223 -303 -31 -42 -729 -990 -777 -1057 -8
-11 -40 -54 -70 -95 -31 -41 -63 -84 -71 -95 -8 -11 -62 -85 -122 -165 -59
-80 -204 -278 -322 -439 -118 -161 -270 -367 -336 -456 -136 -183 -181 -246
-236 -323 -21 -29 -43 -58 -49 -65 -5 -7 -108 -145 -227 -307 -119 -163 -225
-307 -235 -320 -10 -14 -43 -59 -73 -100 -30 -41 -63 -86 -74 -100 -10 -14
-54 -74 -98 -135 -45 -60 -92 -126 -107 -145 -46 -61 -109 -147 -127 -171 -72
-100 -514 -699 -529 -717 -10 -12 -19 -24 -19 -27 0 -2 -21 -32 -47 -67 -27
-35 -57 -76 -68 -92 -11 -15 -27 -36 -35 -47 -15 -18 -111 -149 -467 -634 -96
-132 -196 -268 -222 -301 -25 -34 -53 -72 -61 -84 -8 -12 -42 -58 -76 -103
-34 -45 -154 -208 -267 -362 -507 -691 -617 -841 -629 -857 -7 -9 -64 -86
-126 -170 -62 -84 -154 -209 -205 -278 -50 -69 -123 -168 -162 -220 -38 -52
-80 -110 -92 -128 -13 -18 -28 -38 -34 -45 -8 -10 -106 -143 -163 -222 -31
-42 -170 -230 -178 -240 -17 -21 -340 -461 -348 -475 -8 -13 -10 -13 -22 1 -7
9 -100 131 -205 270 -106 140 -277 364 -379 499 -102 135 -211 279 -242 320
-31 41 -64 84 -74 94 -10 11 -18 23 -18 27 0 4 -6 14 -13 21 -7 7 -52 65 -100
128 -116 154 -514 681 -530 700 -7 8 -82 107 -167 220 -85 113 -214 284 -287
380 -73 96 -198 261 -277 365 -79 105 -261 345 -405 535 -271 357 -636 840
-931 1230 -94 124 -176 232 -183 240 -7 8 -46 60 -87 115 -41 55 -77 102 -80
105 -3 3 -37 48 -75 100 -38 52 -72 97 -75 100 -3 3 -48 61 -100 130 -51 69
-141 188 -200 265 -58 77 -198 262 -310 410 -112 149 -208 275 -212 280 -9 10
-106 139 -523 690 -286 378 -442 584 -470 620 -57 74 -202 267 -254 337 l-56
77 -5220 -2 -5220 -2 -1 -807 c0 -445 2 -809 5 -809 3 -1 2169 -2 4812 -3
4256 -1 4807 -3 4820 -16 8 -8 41 -51 74 -95 34 -44 131 -172 216 -285 86
-113 270 -356 409 -540 140 -184 302 -399 362 -477 230 -304 330 -435 483
-638 87 -115 222 -293 299 -395 77 -102 150 -198 163 -215 13 -16 27 -34 31
-40 92 -123 695 -920 715 -945 7 -8 51 -67 98 -130 121 -160 387 -512 402
-530 7 -8 66 -87 132 -175 66 -88 122 -162 125 -165 5 -5 179 -235 443 -585
87 -115 163 -217 170 -225 7 -8 98 -127 202 -265 104 -137 272 -360 374 -495
102 -135 189 -249 194 -255 17 -21 223 -294 237 -315 8 -13 20 -28 25 -34 6
-6 30 -38 55 -71 25 -33 47 -62 50 -65 3 -3 61 -79 129 -170 232 -308 525
-695 531 -700 3 -3 23 -30 45 -60 22 -30 42 -57 45 -60 3 -3 102 -133 220
-290 118 -157 219 -290 225 -296 5 -6 17 -22 25 -34 8 -12 53 -72 100 -133 47
-62 133 -175 190 -252 58 -77 107 -142 110 -145 3 -3 25 -32 49 -65 25 -33 47
-62 51 -65 3 -3 28 -36 55 -73 l50 -68 19 23 c10 13 118 158 239 323 121 165
254 345 294 400 41 55 81 109 89 120 8 11 59 81 114 155 55 74 106 144 114
155 225 307 478 650 494 670 4 6 37 50 72 100 36 49 71 97 77 105 7 8 109 146
226 307 198 270 244 331 265 358 4 6 88 120 187 255 98 135 183 250 187 255 5
6 65 87 133 180 68 94 157 215 198 270 41 55 112 152 159 215 46 63 111 151
144 195 32 44 66 90 74 102 14 21 386 527 403 548 4 6 32 44 63 85 30 41 63
86 74 100 10 14 98 133 194 265 97 132 183 248 191 257 7 9 22 29 32 45 10 15
23 35 30 43 11 13 99 133 181 245 16 22 83 112 147 200 268 363 299 405 632
859 45 61 95 129 112 151 17 22 90 121 162 220 72 99 150 205 173 236 22 30
87 118 143 195 118 160 227 308 353 479 49 66 174 237 280 380 105 143 199
271 210 285 16 21 409 556 463 630 47 65 160 218 177 240 10 14 48 66 84 115
87 120 79 108 218 297 68 91 182 246 253 343 72 97 179 243 238 324 60 80 131
178 159 216 28 39 81 111 118 160 37 50 115 155 173 235 59 80 150 204 202
275 53 72 103 139 111 150 8 11 96 130 195 265 99 135 187 254 195 265 8 11
69 95 137 186 67 91 181 246 252 343 72 98 191 260 265 360 74 101 161 219
193 262 32 43 189 257 348 474 160 217 321 436 357 485 98 134 340 462 468
635 31 41 59 82 64 90 5 8 11 12 15 9 5 -5 115 -454 129 -524 2 -11 11 -49 20
-85 9 -36 18 -74 20 -85 2 -11 14 -58 26 -105 12 -47 23 -92 25 -100 41 -180
68 -294 140 -595 102 -423 95 -394 101 -421 2 -12 29 -123 59 -247 30 -124 56
-236 59 -249 8 -44 65 -270 68 -272 2 -2 53 10 113 25 61 16 119 30 130 32 11
3 117 28 235 56 118 28 224 53 235 55 11 3 115 27 230 55 246 60 413 100 443
106 12 3 31 7 42 9 42 10 144 37 147 39 1 2 -9 50 -23 107 -14 58 -27 113 -29
123 -2 10 -6 26 -9 35 -3 9 -8 32 -11 51 -3 19 -8 37 -10 41 -2 4 -7 22 -10
41 -3 19 -17 79 -31 134 -14 55 -27 107 -29 115 -4 17 -44 188 -49 210 -2 8
-20 85 -41 170 -61 259 -84 355 -111 468 -14 59 -28 118 -31 131 -2 14 -6 28
-8 31 -2 4 -7 20 -9 36 -7 36 -10 49 -36 154 -12 47 -23 92 -25 100 -2 8 -8
38 -15 65 -15 65 -103 435 -141 595 -17 69 -32 132 -34 140 -2 8 -12 53 -23
100 -34 142 -63 264 -67 280 -2 8 -15 62 -29 120 -14 58 -36 155 -50 215 -14
61 -30 126 -35 145 -5 19 -14 55 -20 80 -6 25 -26 110 -45 190 -19 80 -44 186
-56 235 -38 159 -71 297 -102 425 -16 69 -31 132 -33 140 -3 14 -25 108 -122
510 -24 102 -46 199 -49 215 -3 17 -9 41 -14 55 -5 14 -11 37 -14 53 -7 29 -8
30 -46 16z"/>
</g>
</svg>
